HIERARCHY
ROOT Hips
{
  OFFSET 3.13124 94.3669 -3.18751
  CHANNELS  6 Xposition Yposition Zposition Zrotation Xrotation Yrotation
  JOINT LeftUpLeg
  {
    OFFSET 8.64259 1.95398 -2.38835
    CHANNELS 3 Zrotation Xrotation Yrotation
    JOINT LeftLeg
    {
      OFFSET 43.7702 0 0
      CHANNELS 3 Zrotation Xrotation Yrotation
      JOINT LeftFoot
      {
        OFFSET 40.6238 0 0
        CHANNELS 3 Zrotation Xrotation Yrotation
        JOINT LeftToeBase
        {
          OFFSET 12.7242 0 0
          CHANNELS 3 Zrotation Xrotation Yrotation
          End Site
          {
            OFFSET 0 0 0
          }
        }
      }
    }
  }
  JOINT RightUpLeg
  {
    OFFSET -8.2249 1.95398 -2.59336
    CHANNELS 3 Zrotation Xrotation Yrotation
    JOINT RightLeg
    {
      OFFSET 43.5653 0 0
      CHANNELS 3 Zrotation Xrotation Yrotation
      JOINT RightFoot
      {
        OFFSET 40.6238 0 0
        CHANNELS 3 Zrotation Xrotation Yrotation
        JOINT RightToeBase
        {
          OFFSET 12.7242 0 0
          CHANNELS 3 Zrotation Xrotation Yrotation
          End Site
          {
            OFFSET 0 0 0
          }
        }
      }
    }
  }
  JOINT Spine
  {
    OFFSET 0.165834 0.87714 6.61349
    CHANNELS 3 Zrotation Xrotation Yrotation
    JOINT Spine1
    {
      OFFSET 7.38962 1.71661e-005 0
      CHANNELS 3 Zrotation Xrotation Yrotation
      JOINT Spine2
      {
        OFFSET 11.9445 1.14441e-005 0
        CHANNELS 3 Zrotation Xrotation Yrotation
        JOINT Spine3
        {
          OFFSET 14.7254 4.19617e-005 0
          CHANNELS 3 Zrotation Xrotation Yrotation
          JOINT Spine4
          {
            OFFSET 10.9679 0 0
            CHANNELS 3 Zrotation Xrotation Yrotation
            JOINT RightShoulder
            {
              OFFSET 2.46616 -1.6653 3.69651
              CHANNELS 3 Zrotation Xrotation Yrotation
              JOINT RightArm
              {
                OFFSET 13.0012 0 0
                CHANNELS 3 Zrotation Xrotation Yrotation
                JOINT RightForeArm
                {
                  OFFSET 28.7848 1.52588e-005 0
                  CHANNELS 3 Zrotation Xrotation Yrotation
                  JOINT RightHand
                  {
                    OFFSET 26.5688 1.52588e-005 0
                    CHANNELS 3 Zrotation Xrotation Yrotation
                    End Site
                    {
                      OFFSET 0 0 0
                    }
                  }
                }
              }
            }
            JOINT LeftShoulder
            {
              OFFSET 2.38034 -1.29275 -3.75231
              CHANNELS 3 Zrotation Xrotation Yrotation
              JOINT LeftArm
              {
                OFFSET 16.3182 6.10352e-005 0
                CHANNELS 3 Zrotation Xrotation Yrotation
                JOINT LeftForeArm
                {
                  OFFSET 27.0901 0 0
                  CHANNELS 3 Zrotation Xrotation Yrotation
                  JOINT LeftHand
                  {
                    OFFSET 24.5451 1.52588e-005 0
                    CHANNELS 3 Zrotation Xrotation Yrotation
                    End Site
                    {
                      OFFSET 0 0 0
                    }
                  }
                }
              }
            }
            JOINT Neck
            {
              OFFSET 5.0226 -0.0266342 0
              CHANNELS 3 Zrotation Xrotation Yrotation
              JOINT Head
              {
                OFFSET 6.69363 2.86102e-005 0
                CHANNELS 3 Zrotation Xrotation Yrotation
                End Site
                {
                  OFFSET 0 0 0
                }
              }
            }
          }
        }
      }
    }
  }
}
MOTION
Frames:	7
Frame Time:	0.0333333
-65.7478 81.5881 -149.714 -84.9369 -57.2204 -96.4277 -171.951 53.5839 73.1251 -74.2878 -3.39638 11.9917 18.295 -2.33619 -5.30932 28.7808 5.32353e-006 5.76103e-006 -176.76 40.0237 79.8467 -48.281 14.2904 0.315308 75.3607 16.6523 7.12647 28.7808 1.32444e-005 1.96498e-005 -4.10956 16.345 -84.6669 -6.23593 -1.42354 -0.896128 -17.9064 -1.46158 -0.832603 -40.4431 -1.08841 -1.28251 -20.4304 -1.08841 -1.28254 83.5409 -11.1068 -133.572 77.318 30.1626 -70.5965 16.2076 -1.90455 -93.8778 -5.37983 -0.320017 -0.0162405 -100.869 -16.3452 43.6161 -56.9212 -11.2732 -65.9423 30.0002 3.39665 -74.3281 16.321 -6.51531 -41.9606 -30.347 6.45339 9.82014 22.8263 10.7992 14.1834 
-65.7378 83.3652 -148.892 -86.9535 -56.6343 -97.1936 -172.188 50.0532 74.9969 -71.6318 -3.23021 11.0159 19.1371 -0.624088 -3.03371 28.7808 5.32353e-006 5.76103e-006 -177.6 35.5616 80.8843 -42.9617 13.8122 0.364334 72.9331 16.3615 7.4688 28.7808 1.32444e-005 1.96498e-005 -3.78659 16.1351 -84.9614 -5.78269 -1.6045 -0.958045 -17.4529 -1.6451 -0.886492 -39.9905 -1.24243 -1.39598 -19.9779 -1.24241 -1.39597 83.3708 -14.5465 -130.618 69.8058 31.7029 -60.0641 12.2404 2.18098 -87.0514 -5.37983 -0.320017 -0.0162405 -101.626 -16.5434 42.2532 -53.0645 -9.12723 -63.7124 40.6728 5.92534 -72.9812 13.1314 -4.28639 -34.3908 -32.8238 6.26264 9.11212 22.7241 11.1434 16.026 
-65.7952 85.1496 -147.979 -89.1691 -56.5604 -98.489 -172.023 46.1155 76.3251 -68.9116 -0.578661 10.7808 19.5949 -0.232773 -2.554 28.7808 5.32353e-006 5.76103e-006 -178.362 30.1789 81.3298 -36.3688 13.774 0.435616 70.9111 16.765 8.06637 28.7808 1.32444e-005 1.96498e-005 -3.57363 15.8631 -85.2674 -5.22506 -2.01525 -0.974381 -16.8947 -2.05618 -0.884727 -39.4359 -1.62926 -1.53506 -19.4232 -1.62927 -1.53509 84.0915 -16.1335 -127.564 59.8473 33.2106 -48.5101 8.92266 4.24905 -81.9008 -5.37983 -0.320017 -0.0162405 -101.173 -16.3751 43.0238 -48.551 -4.70106 -62.938 38.1054 5.47962 -73.4527 8.2371 -1.98485 -24.5886 -33.3553 6.85931 8.83841 21.0347 11.8331 17.5502 
-65.9204 86.9352 -147.176 -90.2899 -56.4659 -98.7518 -171.662 42.7356 78.0337 -65.7276 3.41306 12.5523 18.3189 -5.04178 -8.87168 28.7808 5.32353e-006 5.76103e-006 -179.096 25.5913 81.8016 -29.6723 13.0619 0.450885 67.0931 15.6196 8.24868 28.7808 1.32444e-005 1.96498e-005 -3.36639 15.4045 -85.6867 -4.28064 -2.3367 -0.996676 -15.9498 -2.37831 -0.892836 -38.4942 -1.92915 -1.65301 -18.4816 -1.92913 -1.653 84.4543 -17.7586 -125.42 51.4438 37.7503 -39.1589 9.24944 4.5033 -85.4563 -5.37983 -0.320017 -0.0162405 -100.945 -16.0509 43.2048 -44.9295 -1.55737 -62.3713 43.59 8.64738 -71.3168 11.9571 -3.93711 -34.4876 -34.9843 7.41399 8.98873 20.5244 12.6809 18.4846 
-66.4243 88.4214 -146.195 -92.3704 -56.524 -99.7197 -171.53 36.6716 79.7613 -64.2041 17.3593 20.5957 19.1349 -15.5802 -22.1326 28.7808 5.32353e-006 5.76103e-006 -179.992 20.0229 82.4919 -22.5943 12.4862 0.469407 64.0926 15.0386 8.53069 28.7808 1.32444e-005 1.96498e-005 -3.01763 14.9452 -86.5247 -3.30117 -2.83227 -1.03635 -14.9693 -2.87515 -0.910619 -37.52 -2.38986 -1.83995 -17.5074 -2.38986 -1.83997 86.1944 -18.3064 -121.066 42.2282 38.0676 -29.2113 8.54272 4.87804 -88.9599 -5.37983 -0.320017 -0.0162405 -100.185 -15.7628 44.5215 -41.5287 2.63911 -62.3281 53.5475 11.8664 -72.6183 20.2165 -4.99987 -28.5848 -36.2815 7.65505 10.5015 19.7898 13.3114 19.0055 
-66.8783 89.5208 -144.87 -93.9726 -56.4854 -99.4898 -171.682 27.3672 83.7961 -72.5535 44.6267 38.661 36.5603 -20.8394 -20.9382 28.7808 5.32353e-006 5.76103e-006 179.003 14.5167 83.7534 -15.3098 12.5499 0.65963 60.7638 14.6029 8.95598 28.7808 1.32444e-005 1.96498e-005 -2.40848 14.518 -88.2906 -2.3264 -3.37783 -1.03774 -13.9932 -3.42021 -0.887927 -36.5528 -2.90972 -2.00559 -16.5402 -2.90973 -2.00557 88.9725 -17.0802 -115.391 36.0971 35.5138 -21.3195 7.85361 5.29479 -94.5325 -5.37983 -0.320017 -0.0162405 -98.3313 -14.9416 47.7391 -40.2783 7.59721 -63.8125 61.7161 13.2514 -74.2373 30.3862 -6.43878 -25.695 -34.18 8.27919 12.9037 17.5056 13.6303 18.4145 
-67.2488 90.6079 -143.375 -95.1051 -56.8206 -99.9678 -171.505 22.594 87.219 -69.0519 47.3385 41.5534 38.0944 -23.9502 -23.0331 28.7808 5.32353e-006 5.76103e-006 177.68 7.35939 83.9302 -3.8549 12.8976 0.761363 55.3133 13.7585 9.52657 28.7808 1.32444e-005 1.96498e-005 -2.32048 14.0448 -89.1961 -1.32301 -4.00775 -0.914688 -12.988 -4.04411 -0.737134 -35.5615 -3.54739 -2.07817 -15.5488 -3.5474 -2.07818 91.6922 -15.3445 -109.713 32.8235 34.5829 -16.2176 7.97294 5.63393 -99.7525 -5.37983 -0.320017 -0.0162405 -95.9396 -14.3931 52.5445 -39.3523 13.03 -66.2077 65.6003 11.3305 -75.7877 27.7369 -4.62078 -21.1247 -31.1786 10.0522 16.2588 14.4167 14.8773 17.6484 
